<svg id="Illustration" xmlns="http://www.w3.org/2000/svg" xmlns:xlink="http://www.w3.org/1999/xlink" viewBox="0 0 1137.6 668.79"><defs><style>.cls-1{fill:url(#linear-gradient);}.cls-2{fill:url(#linear-gradient-2);}.cls-3{fill:url(#linear-gradient-3);}</style><linearGradient id="linear-gradient" x1="1845.93" y1="1335.41" x2="1309.55" y2="2215.72" gradientUnits="userSpaceOnUse"><stop offset="0" stop-color="#ffc444"/><stop offset="1" stop-color="#f36f56"/></linearGradient><linearGradient id="linear-gradient-2" x1="1769.55" y1="1242.57" x2="2352.59" y2="1650.7" gradientUnits="userSpaceOnUse"><stop offset="0" stop-color="#aa80f9"/><stop offset="1" stop-color="#6165d7"/></linearGradient><linearGradient id="linear-gradient-3" x1="1888.41" y1="1361.29" x2="1352.03" y2="2241.61" xlink:href="#linear-gradient"/></defs><path class="cls-1" d="M1880.75,1851.22l-365.66,14c-124.69,4.78-228.89-96.71-228.89-226.36v-62.21c0-129.66,104.2-232.69,228.89-229.77l365.66,8.57c110.83,2.6,198.76,100.44,198.76,218.15v56.49C2079.51,1747.83,1991.58,1847,1880.75,1851.22Zm-365.66-415.41c-75.82-1-138.52,62.06-138.52,140.52v61.56c0,78.46,62.7,140.56,138.52,138.45l365.66-10.14c68.15-1.89,122.74-62.55,122.74-135.24v-57c0-72.7-54.59-132.54-122.74-133.42Z" transform="translate(-1286.2 -1196.61)"/><path class="cls-2" d="M2242.35,1684.63l-332.76,6.12c-113.15,2.08-207.6-96.57-207.6-220v-59.2c0-123.4,94.45-219.7,207.6-214.79l332.76,14.44c101.13,4.39,181.45,99.43,181.45,212v54C2423.8,1589.73,2343.48,1682.77,2242.35,1684.63Zm-332.76-403.12c-68.82-2.25-125.7,56.67-125.7,131.38v58.62c0,74.72,56.88,135.06,125.7,134.52l332.76-2.6c62.17-.48,112-57.39,112-126.85v-54.5c0-69.47-49.84-127.62-112-129.66Z" transform="translate(-1286.2 -1196.61)"/><path class="cls-3" d="M2016.06,1415.29q-30.18,26.48-60.67,53.23c29.28,24.43,48.1,62.63,48.1,105.41v57c0,72.69-54.59,133.35-122.74,135.24l-365.66,10.14c-75.82,2.11-138.52-60-138.52-138.45v-15.72c-3.14,2.44-6.28,4.87-9.41,7.33-25.39,20-50.31,40.88-74.91,62.44,24.06,103.36,116,177.4,222.84,173.31l365.66-14c110.83-4.24,198.76-103.39,198.76-221.1v-56.49C2079.51,1511.44,2055.16,1455.1,2016.06,1415.29Z" transform="translate(-1286.2 -1196.61)"/></svg>