<svg id="Layer_1" data-name="Layer 1" xmlns="http://www.w3.org/2000/svg" xmlns:xlink="http://www.w3.org/1999/xlink" viewBox="0 0 1874.01 1381.75"><defs><style>.cls-1,.cls-17,.cls-4,.cls-5{fill:none;}.cls-2{fill:#ee6f57;}.cls-3{fill:#e5ecff;}.cls-4,.cls-5{stroke:#fbc343;}.cls-17,.cls-21,.cls-25,.cls-4,.cls-5{stroke-miterlimit:10;}.cls-4{stroke-width:3.82px;}.cls-21,.cls-5{stroke-width:3.75px;}.cls-6{clip-path:url(#clip-path);}.cls-7{fill:#ffeec7;}.cls-11,.cls-21,.cls-25,.cls-8{fill:#fff;}.cls-9{fill:#e28b6d;}.cls-10{fill:#102048;}.cls-11,.cls-27{opacity:0.8;}.cls-12,.cls-15{fill:#1f3c88;}.cls-13{fill:#6f3428;}.cls-14{fill:#708cd5;}.cls-15,.cls-22{opacity:0.3;}.cls-16{fill:#f9b384;}.cls-17{stroke:#102048;}.cls-17,.cls-25{stroke-width:5px;}.cls-18,.cls-19,.cls-22{fill:#3c1c16;}.cls-19{opacity:0.15;}.cls-20{fill:#fc8879;opacity:0.5;}.cls-21{stroke:#1f3c88;}.cls-23{fill:#8cbfbe;}.cls-24{fill:#c6eae9;}.cls-25{stroke:#708cd5;}.cls-26{fill:#fbc343;}</style><clipPath id="clip-path" transform="translate(-57.31 -347.67)"><path class="cls-1" d="M1592,1356c-42.07,121.74-92.32,242-267.1,288.4l-755.42-8C399.21,1556,306.19,1397.2,290.71,1225.92a584.19,584.19,0,0,1,10.1-171.54q4.65-22.5,11.1-44.73c39-134.55,121.63-261.4,244.5-332.95,79-46,180.15-30.8,264-7.2,75.6,21.27,149.45,51.07,227.5,60,62.18,7.13,125.43.8,187.8,3.25a455.48,455.48,0,0,1,66.5,7c94.23,17.7,177.75,75.47,235.08,152.72a420.45,420.45,0,0,1,49.3,85.7C1637.06,1096.75,1634,1234.23,1592,1356Z"/></clipPath></defs><path class="cls-2" d="M1799.48,1498.31l-.48,0,1.41-24.44H1676.12l6,103.66a36.72,36.72,0,0,0,36.66,34.6h39a36.73,36.73,0,0,0,36.67-34.6l1.38-23.92c1.21.11,2.44.18,3.68.18,18.15,0,32.91-12.45,32.91-27.75S1817.63,1498.31,1799.48,1498.31Zm0,44a27,27,0,0,1-3-.19l1.86-32.28c.38,0,.76,0,1.15,0,11.81,0,21.41,7.3,21.41,16.26S1811.29,1542.32,1799.48,1542.32Z" transform="translate(-57.31 -347.67)"/><path class="cls-3" d="M1750.85,1464.5c-12.19-1.58-23.69-8.65-31.53-18.73a50,50,0,0,1-8.76-17.23c-.5-1.56-.78-3.17-1.13-4.77s-.54-3.23-.62-4.86a52.06,52.06,0,0,1,0-9.75,54.22,54.22,0,0,1,5.29-18.64,50.54,50.54,0,0,1,5.12-8.29,51.77,51.77,0,0,1,6.46-7.06c2.19-2,4.3-3.79,6.1-5.56a30.36,30.36,0,0,0,2.5-2.62,17.66,17.66,0,0,0,1.86-2.64,12.69,12.69,0,0,0,1.74-6,7.66,7.66,0,0,0-1.73-5.48l3.13-4.56a12.05,12.05,0,0,1,4.28,3.76,15.78,15.78,0,0,1,2.26,5.16,20.52,20.52,0,0,1-.5,10.8c-2.47,7.06-7.18,11.68-10.7,15.8a48.3,48.3,0,0,0-4.54,6c-.7,1-1.26,2.11-1.88,3.16s-1.13,2.18-1.58,3.33a48.49,48.49,0,0,0-3.76,14.2,45.08,45.08,0,0,0,6.31,28.26,53.28,53.28,0,0,0,23.09,20.32Z" transform="translate(-57.31 -347.67)"/><path class="cls-3" d="M1754.57,1435.41A59.92,59.92,0,0,0,1766.7,1421a48.21,48.21,0,0,0,6.19-16.49,50.93,50.93,0,0,0-.27-17.57,65.52,65.52,0,0,0-6.25-17.79l4-3.8c6.46,4.12,11.33,10.7,14.17,18a43.56,43.56,0,0,1,2.23,23.59,44.62,44.62,0,0,1-10.36,21.29,38.6,38.6,0,0,1-19.39,12.13Z" transform="translate(-57.31 -347.67)"/><path class="cls-4" d="M773.44,1636.83c-158.72-30.74-270.83-123.22-322.87-266.48-82.77-227.88,5.92-563.8,243.22-637.61,94-29.23,209.38,23.11,305.93,22.4,135.6-1,257.55-84.22,392.26-73.61,175.37,13.82,303.57,175.38,336.45,339.31A484.41,484.41,0,0,1,1732,1192c-9.82,61.55-29.82,121.86-60.18,175.19-26.15,45.95-86.62,106.78-138.06,119Z" transform="translate(-57.31 -347.67)"/><path class="cls-5" d="M1198.3,1611.38c156.86-38.73,276.72-155.7,318-289.54,65.73-212.9-48.71-512.43-292.31-563.46-49.48-10.36-101.63-7.74-151.83-1.94-82,9.48-166.12,21.39-248.76,18.75-80.37-2.56-158.31-26.19-239.3-24.37-267.69,6-428,261.67-366.57,495.75,14.52,55.32,39.15,108.82,73.65,155.27,29.71,40,95,91.25,147.5,98.9Z" transform="translate(-57.31 -347.67)"/><g class="cls-6"><path class="cls-7" d="M1592,1356c-42.07,121.74-92.32,242-267.1,288.4l-755.42-8C399.21,1556,306.19,1397.2,290.71,1225.92a584.19,584.19,0,0,1,10.1-171.54q4.65-22.5,11.1-44.73c39-134.55,121.63-261.4,244.5-332.95,79-46,180.15-30.8,264-7.2,75.6,21.27,149.45,51.07,227.5,60,62.18,7.13,125.43.8,187.8,3.25a455.48,455.48,0,0,1,66.5,7c94.23,17.7,177.75,75.47,235.08,152.72a420.45,420.45,0,0,1,49.3,85.7C1637.06,1096.75,1634,1234.23,1592,1356Z" transform="translate(-57.31 -347.67)"/><path class="cls-8" d="M155,1540.33c-3.44-41.82,20-86.92,61.11-117.69,37.47-28,83.7-42.32,128.08-53.58,246.58-62.59,507-55.12,758.91-47.9,225.09,6.46,457.86,13.13,680.69-30,31.73-6.14,65.07-13.62,93.45-31.22,30.48-18.91,49.78-48.54,50.36-77.31,1.1-54-57.36-90.94-92.3-108.18-132.69-65.48-296-90.11-513.8-77.54a2461.14,2461.14,0,0,0-488.77,78.47c-36,9.57-72.65,20.16-108.06,30.39-126.76,36.65-257.82,74.53-391.5,74.53h-2c-36.29-.1-82.88-7.45-98.76-41.88-11.21-24.3-1.78-52,8.1-70.92,33-63.31,95.48-100.21,142.08-120,52.33-22.24,109.21-34.34,164.2-46l19.58-4.18a3708.17,3708.17,0,0,0,365-98.41c56.64-18.42,85.7-42.38,88.86-73.24,2.8-27.38-17.29-51.35-38.45-63-25.34-13.92-55.29-15.73-78.54-15.74h-.33a432.19,432.19,0,0,0-201.45,49.82c-22.89,12.1-45,26.51-66.34,40.44-28.27,18.44-57.51,37.51-89,51.54C485.1,815.81,413,825.8,331.59,818.38c-62.82-5.73-110.7-21.15-146.38-47.15-21.53-15.69-39.5-35.92-56.88-55.5-21.12-23.78-43-48.37-71-64.34l1.86-3.26c28.6,16.28,50.65,41.11,72,65.12,17.24,19.42,35.08,39.5,56.28,55,35.12,25.59,82.39,40.78,144.51,46.44,80.7,7.36,152.24-2.52,212.6-29.38,31.24-13.9,60.35-32.89,88.5-51.25,21.43-14,43.59-28.43,66.63-40.62a436.1,436.1,0,0,1,203.21-50.25h.33c23.7,0,54.26,1.87,80.35,16.2,22.24,12.21,43.34,37.55,40.37,66.63-3.33,32.49-33.23,57.49-91.43,76.43a3709.32,3709.32,0,0,1-365.38,98.5q-9.78,2.11-19.59,4.19C492.7,916.74,436,928.8,384,950.9c-46,19.57-107.71,56-140.22,118.3-9.49,18.2-18.58,44.71-8,67.62,15,32.64,60.16,39.6,95.36,39.7h2c133.16,0,264-37.81,390.47-74.38,35.43-10.24,72.06-20.83,108.14-30.41a2464.83,2464.83,0,0,1,489.51-78.59c218.52-12.62,382.38,12.14,515.68,77.91,35.74,17.64,95.53,55.59,94.39,111.63-.61,30-20.59,60.84-52.14,80.42-28.91,17.94-62.64,25.5-94.7,31.71-223.24,43.24-456.22,36.56-681.52,30.1-251.61-7.21-511.8-14.67-757.88,47.79-44,11.16-89.81,25.31-126.75,52.94-40.12,30-63,73.84-59.62,114.39Z" transform="translate(-57.31 -347.67)"/></g><path class="cls-9" d="M1245,1541.8c51,13.07,121.08,24.8,98.75,68.4l-127.07-.12Z" transform="translate(-57.31 -347.67)"/><rect class="cls-10" x="461.24" y="893.71" width="274.89" height="403.01" rx="75.99"/><path class="cls-11" d="M579.77,1278.53c-4.62,1.21-7.73,5.43-9.82,9.73a62.91,62.91,0,0,0-4.51,14,188.1,188.1,0,0,0-3.62,29.51,536.64,536.64,0,0,0,.61,59.75q1.71,29.87,5.37,59.61,1.74,14.87,4,29.67c1.47,9.87,3.11,19.72,5.12,29.5l-1.43.32c-2.39-9.73-4.44-19.54-6.27-29.39s-3.31-19.76-4.69-29.68q-4-29.79-5.82-59.82c-1-20-1.53-40.1-.07-60.16a184.83,184.83,0,0,1,4.31-29.89,65.1,65.1,0,0,1,5.2-14.31,27.13,27.13,0,0,1,4.48-6.31,13.85,13.85,0,0,1,6.79-3.93Z" transform="translate(-57.31 -347.67)"/><path class="cls-12" d="M626.79,1305.09s7.78,157.73,56.74,331.25H817.32Z" transform="translate(-57.31 -347.67)"/><path class="cls-13" d="M688.16,1224.57c-33.61-18.29-42.83-63.61-18.28-93,2.36-2.84,5-5.7,7.89-8.6,37.51-37.36,14.14-74.74,8.89-160.7s90.44-109.33,90.62-109.38c4.51-1.1,13.25-14,16.94-17.18C837.4,798.23,899.34,801,946.68,829.5c22.52,13.56,45.18,34.44,57.37,58.4,19.33,38,22.83,88.06,55.38,117.65,46.41,42.18,97.88,78,95.8,146-.73,24.17-6.78,49.7-21.51,69.07-12.84,16.88-32.39,28.21-50,39.13-28.69,17.75-59,33.45-91,44-31,10.21-62.36,19.38-93.79,28.13l-8.92,2.47Z" transform="translate(-57.31 -347.67)"/><path class="cls-14" d="M906.94,1187.42c112.37-38.58,173.4,87.19,257.32,332.59L1245,1541.8l-9.38,87.39-29.46,6.14-240.56,1Z" transform="translate(-57.31 -347.67)"/><rect class="cls-3" x="98.36" y="1259.72" width="1708.64" height="58.89"/><polygon class="cls-14" points="691.33 821.48 942.61 884.37 1048.19 1200.72 695.5 1211.46 672.17 977.56 691.33 821.48"/><path class="cls-15" d="M757.5,1305.09c61.74,62.16,48.09,153.23,100.83,162.27,34.92,6,134.14,20.16,181.48,39.89,9.58,4,36,23.64,31.91,41.08-2.64,11.24-37.86,2.24-37.86,2.24L770.18,1524.1l-55.84-129.2Z" transform="translate(-57.31 -347.67)"/><path class="cls-10" d="M974.4,1532.92c1.79-2.83,39.6-10.33,43.87-9.74,14.06,1.92,21.74,12.93,25.13,21.36L987.46,1574Z" transform="translate(-57.31 -347.67)"/><path class="cls-10" d="M1016.25,1304.81l6.49,14.79c2.14,5,4.13,10,6.21,14.92,4,10,7.83,20.07,11.43,30.22,7.31,20.26,13.78,40.82,19.85,61.49s11.32,41.57,16.06,62.58c2.29,10.52,4.5,21.07,6.46,31.66s3.57,21.25,5,31.93l-1.39.2q-2.64-15.9-6-31.65c-2.16-10.52-4.57-21-7-31.44q-7.47-31.34-16.43-62.3c-5.87-20.66-12.4-41.13-19.29-61.47-3.4-10.19-7.1-20.28-10.83-30.34-1.91-5-3.75-10.07-5.72-15.07l-6-15Z" transform="translate(-57.31 -347.67)"/><path class="cls-16" d="M1217.11,1586.3s-10.57,12.5-43.95.32c-15.72,1.83-45,.43-100.6-8.64,0,0,20.2,14.12,65.88,16.54,0,0-2,13.46-26,12.86-29-.73-32.32-2.48-58.72-1.38-5.4.23-17.15,0-29.88-.42-22.2-.73-47.42-1.91-47.42-1.91l-22-39.32,43.9-21c13.47-5.27,20.2-7.09,26.75-8,28.35-4,46.25-7.22,66.57-3.72C1114.19,1535.45,1183.16,1558.32,1217.11,1586.3Z" transform="translate(-57.31 -347.67)"/><path class="cls-9" d="M1025,1604.9l-1.23.68c-22.2-.73-47.42-1.91-47.42-1.91l-22-39.32,43.9-21c13.47-5.27,20.2-7.09,26.75-8C1008.9,1541.88,995.69,1559.13,1025,1604.9Z" transform="translate(-57.31 -347.67)"/><path class="cls-14" d="M852.22,1187c-57.12-11.7-196.31-21.44-235.2,50.62-32,59.33,48.24,258,83,327.87,14.31,28.76,55.87,43,72,43.1l229.49-1.32c-15.44-3.58-35.23-86.43,16.73-84.08l-190-26.48a26,26,0,0,1-18.15-11.41c-2.75-4.15-5.94-9.4-7.57-15.37l-53.94-197.6Z" transform="translate(-57.31 -347.67)"/><polygon class="cls-8" points="1302.68 1260.91 1078.78 1260.77 1078.78 1239.65 1303.98 1239.65 1302.68 1260.91"/><polygon class="cls-10" points="1491.86 1260.91 1221.76 1260.83 1320.28 972.75 1590.37 972.84 1491.86 1260.91"/><path class="cls-8" d="M1485.14,1479.88c-8.28,13.22-23.75,18.64-35.55,12.84a17.83,17.83,0,0,1-2-1.12c-12-7.5-14.65-24.95-5.9-38.93s25.57-19.25,37.6-11.72a22.9,22.9,0,0,1,8.25,9.12C1491.79,1458.65,1491.24,1470.12,1485.14,1479.88Z" transform="translate(-57.31 -347.67)"/><path class="cls-14" d="M1485.14,1479.88c-8.28,13.22-28.62,22.83-42.88,7.11,30.93,2.8,41.34-17.46,40.76-43.06C1493.6,1455.62,1491.24,1470.12,1485.14,1479.88Z" transform="translate(-57.31 -347.67)"/><path class="cls-13" d="M1091.73,1530.85c11.48,1.7,22.59,4.9,33.61,8.32s21.83,7.48,32.47,11.95a301,301,0,0,1,31.23,15c10.07,5.66,19.88,12,28.54,19.66l-.93,1.13c-4.59-3.4-9.32-6.6-14.22-9.53s-9.87-5.76-14.94-8.38c-10.14-5.27-20.51-10.12-31.12-14.41-10.48-4.62-21.24-8.54-32-12.38q-8.1-2.85-16.32-5.36c-5.46-1.71-11-3.28-16.54-4.51Z" transform="translate(-57.31 -347.67)"/><path class="cls-13" d="M1087.28,1584.16l12.08,3.45c4,1.08,8.07,2,12.14,2.84s8.16,1.48,12.28,2.06,8.25,1,12.4,1.37l1.38.13.11,1.2a11.42,11.42,0,0,1-.45,4.46,8.23,8.23,0,0,1-2.42,3.81,9.23,9.23,0,0,1-3.93,1.91,18.55,18.55,0,0,1-2.06.29l-2,0v-1.47l1.81-.27a17.64,17.64,0,0,0,1.7-.48,6.77,6.77,0,0,0,2.73-1.77,5.81,5.81,0,0,0,1.42-2.75,8.45,8.45,0,0,0,.08-3.16l1.49,1.33a122.56,122.56,0,0,1-25.28-3.09,109.94,109.94,0,0,1-12.23-3.6,126.74,126.74,0,0,1-11.73-4.84Z" transform="translate(-57.31 -347.67)"/><path class="cls-13" d="M1077.05,1555.05c9.71,1.24,19.48,2.19,29.25,3.19s19.54,2,29.31,3.57,19.38,3.32,29.05,5.07,19.32,3.54,28.95,5.49l2.28.46-1,2.12a28.27,28.27,0,0,1-2.49,5.19,14.88,14.88,0,0,1-2.07,2.42,27.13,27.13,0,0,1-2.54,1.79c-3.54,2.07-7.33,2.77-11,3.49-7.46,1.22-14.88,1.17-22.25.93-3.69-.14-7.37-.3-11-.63s-7.34-.53-11-1c-7.31-.76-14.58-1.8-21.84-2.85l.18-1.46c7.31.6,14.58,1.42,21.88,1.85,3.65.28,7.29.5,10.94.66s7.29.3,10.93.34a129.16,129.16,0,0,0,21.61-1.26c3.44-.69,7-1.44,9.8-3.15.71-.4,1.29-.93,2-1.38a11.33,11.33,0,0,0,1.47-1.77,26.24,26.24,0,0,0,2.17-4.73l1.31,2.58c-19.28-3.64-38.54-7.52-57.85-10.87-9.6-1.75-19.35-2.92-29.08-4.23s-19.47-2.59-29.16-4.38Z" transform="translate(-57.31 -347.67)"/><line class="cls-17" x1="98.36" y1="1259.72" x2="1807.01" y2="1259.72"/><path class="cls-10" d="M824.12,1261.86a81.63,81.63,0,0,0,27.19,12,74.54,74.54,0,0,0,29.44,1.13,61.06,61.06,0,0,0,27-11.19,62.12,62.12,0,0,0,18.72-22.75l1.34.58c-1,2.33-2.11,4.67-3.21,7s-2.73,4.37-4.1,6.57-3.34,4-5,6-3.84,3.49-5.76,5.25a61.81,61.81,0,0,1-28.39,12.26A74.44,74.44,0,0,1,823.24,1263Z" transform="translate(-57.31 -347.67)"/><path class="cls-10" d="M758.18,1304.9l12.53,42.59L783,1390.14l12.21,42.68,6.06,21.35,3,10.68a79.19,79.19,0,0,0,3.3,10.3c2.75,6.45,8.31,11.22,14.6,14.51a85.26,85.26,0,0,0,20.56,6.85c7.17,1.54,14.42,2.58,21.78,3.53l22,3,44,6.08,43.94,6.33-.18,1.39-44.09-5.23-44.06-5.47-22-2.8c-7.32-.9-14.73-1.93-22-3.47a88.89,88.89,0,0,1-21.45-7.06c-6.74-3.46-13.17-8.84-16.23-16.18a16.81,16.81,0,0,1-1.07-2.73c-.31-.92-.66-1.86-.88-2.74L801,1465.8l-3-10.69-6-21.38L780.13,1391l-11.75-42.81-11.55-42.87Z" transform="translate(-57.31 -347.67)"/><path class="cls-16" d="M900.91,1097.65l11.25,96.87c3.35,28.84-27,53-57.85,45-17.61-4.57-36-16.76-55-35.08a22.38,22.38,0,0,1-6.81-13.84l-12-116.75Z" transform="translate(-57.31 -347.67)"/><path class="cls-18" d="M902.44,1110.82l6.12,52.75c-24.89,3.91-60-10.09-95.58-57.34Z" transform="translate(-57.31 -347.67)"/><path class="cls-16" d="M963.83,1027.9c-1.44,17.57-4.21,35.92-9.14,52.41-8.33,27.71-22.86,50.07-47.75,54.21-73.28,12.18-126.38-60.67-126.38-60.67L772,974.72l44.23-76.51,99-2.87,48.29,57.13A474.64,474.64,0,0,1,963.83,1027.9Z" transform="translate(-57.31 -347.67)"/><path class="cls-13" d="M769.67,1012.39c39.33-2.94,48.39-36.18,51.08-79.27,0,0,106.55-26.39,144.37,49.35l28.69,3.11L906.94,870.26l-135,16.11L745.53,974Z" transform="translate(-57.31 -347.67)"/><path class="cls-16" d="M790.48,999.47a21.47,21.47,0,0,0-18.38-6.87c-26.13,3.17-30.67,37.77-24.7,52.5,8.94,22,33.15,28.74,33.15,28.74l20.81-22C803,1028.93,800.42,1010.42,790.48,999.47Z" transform="translate(-57.31 -347.67)"/><path class="cls-19" d="M790.91,1100.43c14.36,40.83,58.54,156.14-13.62,153.24-34.78-1.39-65.34-68.85-114.91-56.12a131,131,0,0,1,18.53-7.16Z" transform="translate(-57.31 -347.67)"/><path class="cls-13" d="M780.55,1073.84c13.92,26.44,52.86,157.24-13.47,149.69-32-3.65-39.81-42.15-86.17-33.14Z" transform="translate(-57.31 -347.67)"/><path class="cls-18" d="M782.83,1023.43a14.42,14.42,0,0,0-2.38-8.26,14.77,14.77,0,0,0-6.14-5.41,10,10,0,0,0-7.57-.4c-2.53.89-4.78,2.88-7,5.18l-1.61-1a15.19,15.19,0,0,1,6.88-8.06,9.13,9.13,0,0,1,2.72-1,9.32,9.32,0,0,1,2.92-.35l1.48.05,1.43.3a10,10,0,0,1,2.73.94,16.24,16.24,0,0,1,7.74,7.78,13.54,13.54,0,0,1,.62,10.61Z" transform="translate(-57.31 -347.67)"/><path class="cls-18" d="M923,1008.66c.24,6.74,4.16,12.07,8.77,11.91s8.15-5.75,7.91-12.49-4.16-12.07-8.77-11.91S922.8,1001.93,923,1008.66Z" transform="translate(-57.31 -347.67)"/><path class="cls-18" d="M850.38,1011.21c.23,6.74,4.16,12.07,8.77,11.9s8.14-5.75,7.91-12.49-4.16-12.06-8.77-11.9S850.14,1004.47,850.38,1011.21Z" transform="translate(-57.31 -347.67)"/><path class="cls-18" d="M922.11,1077.25a35.89,35.89,0,0,1-12,10.2,23.48,23.48,0,0,1-16.45,1.17,40.74,40.74,0,0,1-14-7.62,65,65,0,0,1-10.83-10.92l1.51-1.57c4.15,2.87,8,5.94,12.16,8.52s8.27,5,12.64,6.27a21.15,21.15,0,0,0,13.07-.23c4.26-1.58,8.28-4.41,12.3-7.38Z" transform="translate(-57.31 -347.67)"/><path class="cls-18" d="M947.63,987.85a61.83,61.83,0,0,0-9.34-5.73,17.83,17.83,0,0,0-9.13-1.67,31.65,31.65,0,0,0-9.45,2.79c-3.26,1.42-6.46,3.33-10.13,5l-1-1.05a29.71,29.71,0,0,1,8-9.18,23.22,23.22,0,0,1,12.06-4.76,18.32,18.32,0,0,1,12.77,3.9,22.87,22.87,0,0,1,7.4,9.86Z" transform="translate(-57.31 -347.67)"/><path class="cls-18" d="M874.84,990.4a38.35,38.35,0,0,0-10.5-5.51,26.19,26.19,0,0,0-10.77-1.09,39.78,39.78,0,0,0-10.84,2.9c-3.62,1.5-7.17,3.45-11.13,5.33l-1-1a31.11,31.11,0,0,1,9.14-9.75,27.66,27.66,0,0,1,13.14-4.78,23.33,23.33,0,0,1,13.92,3A21.45,21.45,0,0,1,876,989.51Z" transform="translate(-57.31 -347.67)"/><path class="cls-20" d="M804.48,1057.8a26.64,26.64,0,1,0,25.69-27.56A26.64,26.64,0,0,0,804.48,1057.8Z" transform="translate(-57.31 -347.67)"/><path class="cls-20" d="M963.83,1027.9c-1.44,17.57-4.21,35.92-9.14,52.41a26.66,26.66,0,0,1,5.5-52.51A31.48,31.48,0,0,1,963.83,1027.9Z" transform="translate(-57.31 -347.67)"/><path class="cls-20" d="M893,1003.4a1.14,1.14,0,0,1,2.23-.21c6,19.44,25.31,33.64,22.21,39.35-2.18,4-10.36,8.56-16.1,11.37a5.14,5.14,0,0,1-7.3-3.64C891.23,1035.84,891.39,1020,893,1003.4Z" transform="translate(-57.31 -347.67)"/><path class="cls-18" d="M897.1,1001.43a50.16,50.16,0,0,0,7.09,15.72c3.17,4.86,6.88,9.38,10.63,14.13.95,1.19,1.86,2.43,2.76,3.75a20.73,20.73,0,0,1,2.48,4.56,6.65,6.65,0,0,1,.35,3.61,7.2,7.2,0,0,1-1.7,3.1,20.28,20.28,0,0,1-3.88,3.32,63.08,63.08,0,0,1-16.86,7.57l-.83-2c2.55-1.52,5.17-3,7.64-4.57a70.07,70.07,0,0,0,7.14-4.91,20.63,20.63,0,0,0,2.79-2.7,3.54,3.54,0,0,0,.47-.78,2.79,2.79,0,0,0-.23-.8c-.78-2-2.78-4.44-4.51-6.75-3.62-4.71-7.43-9.61-10.34-15.11a39.24,39.24,0,0,1-5.16-17.88Z" transform="translate(-57.31 -347.67)"/><path class="cls-18" d="M757.27,1081.1a25.13,25.13,0,0,0-2,11.9,40,40,0,0,0,2.86,11.9c3.22,7.59,7.52,15,11.29,22.69s7.22,15.76,8.76,24.48a54.61,54.61,0,0,1,.64,13.28,56.51,56.51,0,0,1-1.1,6.67,31.62,31.62,0,0,1-2.46,6.42,25.74,25.74,0,0,1-9.25,10.27,21.59,21.59,0,0,1-13.64,3.2c-4.77-.6-8.77-2.33-12.76-3.93s-7.85-3.38-11.71-5.12c-7.71-3.4-15.51-6.7-23.6-8.2a27.35,27.35,0,0,0-12,0,16.1,16.1,0,0,0-5.26,2.57,17.81,17.81,0,0,0-4,4.4l-1.62-.94a19.93,19.93,0,0,1,4.17-5.27,18.64,18.64,0,0,1,5.95-3.32,30.28,30.28,0,0,1,13.29-.76c8.7,1.34,16.79,4.49,24.71,7.66l11.74,4.88c3.87,1.53,7.84,3.08,11.54,3.48a16.83,16.83,0,0,0,10.68-2.63,22.38,22.38,0,0,0,7.55-8.49,27.05,27.05,0,0,0,2.15-5.43,52.42,52.42,0,0,0,1-5.89,50.26,50.26,0,0,0-.47-12.12c-1.34-8.06-4.48-15.84-8-23.48s-7.56-15.12-10.68-23.3a43.33,43.33,0,0,1-2.43-12.93,26,26,0,0,1,2.93-12.84Z" transform="translate(-57.31 -347.67)"/><path class="cls-18" d="M758.62,858.4a140.59,140.59,0,0,1,22.26-7.55,223,223,0,0,1,23-4.73,197.23,197.23,0,0,1,23.41-2.21c3.93-.1,7.86-.09,11.8.11a83,83,0,0,1,11.74,1.51l-.27,1.85c-3.85-.12-7.67-.25-11.51,0s-7.68.35-11.51.72q-11.5,1-22.95,2.75c-7.64,1.12-15.23,2.5-22.81,4-3.79.73-7.55,1.58-11.31,2.48s-7.47,1.87-11.21,2.88Z" transform="translate(-57.31 -347.67)"/><path class="cls-18" d="M820.32,932.28a42.69,42.69,0,0,1,10-3.54c3.4-.79,6.82-1.48,10.27-1.93a154.15,154.15,0,0,1,20.81-1.32,158.48,158.48,0,0,1,41.33,5.6c13.44,3.76,26.46,9.68,37.63,18.24A80.79,80.79,0,0,1,966,982.07l-1.69.8a87.91,87.91,0,0,0-26.45-30.18,107.18,107.18,0,0,0-17.4-10.16,134.31,134.31,0,0,0-19-6.88,168.55,168.55,0,0,0-40.12-6.12,159.11,159.11,0,0,0-20.37.5c-6.73.6-13.63,1.47-19.76,3.92Z" transform="translate(-57.31 -347.67)"/><path class="cls-18" d="M349.46,1305.34l25.71,8.33a5.65,5.65,0,0,1,.68,10.48l-28.07,13.31,0,.38,39.27,7.83A2.72,2.72,0,1,1,386,1351l-39.27-7.83a5.65,5.65,0,0,1-1.32-10.64l28.07-13.31,0-.38-25.7-8.33a2.72,2.72,0,1,1,1.67-5.18Z" transform="translate(-57.31 -347.67)"/><path class="cls-18" d="M283.1,1269.93l22.82,7.4a5,5,0,0,1,.61,9.3l-24.93,11.82,0,.34,34.87,7a2.42,2.42,0,0,1-.94,4.75l-34.88-7a5,5,0,0,1-1.17-9.46l24.93-11.82,0-.33-22.83-7.4a2.42,2.42,0,0,1,1.5-4.6Z" transform="translate(-57.31 -347.67)"/><path class="cls-18" d="M420.87,1359.59l18.1,5.87a4,4,0,0,1,.48,7.38l-19.77,9.37,0,.27,27.65,5.51a1.92,1.92,0,0,1-.75,3.76L419,1386.24a4,4,0,0,1-.93-7.5l19.77-9.37,0-.26-18.1-5.87a1.92,1.92,0,0,1,1.18-3.65Z" transform="translate(-57.31 -347.67)"/><rect class="cls-21" x="1390.68" y="749.81" width="128.11" height="120.11" rx="23.89"/><polygon class="cls-12" points="1454.73 893.66 1431.45 869.92 1478.02 869.92 1454.73 893.66"/><path class="cls-12" d="M1510,1191.56a4.24,4.24,0,0,1-3.24-1.5l-23.29-27.38a4.25,4.25,0,0,1,6.48-5.51l19.31,22.7,30.06-54.18a4.25,4.25,0,1,1,7.44,4.12l-33,59.56a4.27,4.27,0,0,1-3.3,2.17A3,3,0,0,1,1510,1191.56Z" transform="translate(-57.31 -347.67)"/><path class="cls-2" d="M323.9,1480.26c-35.67,8.45-75.24,20.16-92.16,56.12-16,34,.65,67,32.76,83,21.73,10.88,104.53,29.19,70.15,69.37-22.22,26-60.79,17.93-86.16,2.61-13.21-8-25.25,12.7-12.08,20.66,28.85,17.43,62,23.82,93.42,9.41,34.06-15.64,47.46-55.73,21.48-85-13.32-15-32.14-22.11-50.63-28.47-17.49-6-40.39-12.75-48.88-31.19-8-17.35,2.49-37.18,15.81-48.61,17.22-14.77,41.18-19.72,62.65-24.8,15-3.55,8.64-26.63-6.36-23.08Z" transform="translate(-57.31 -347.67)"/><path class="cls-2" d="M651.78,1524c40.56,2.37,43.47-50.45,43.47-50.45s-27.75-14.08-53.74,3.38Z" transform="translate(-57.31 -347.67)"/><path class="cls-18" d="M654.07,1508c16.15-.25,24.1-20.55,24.1-20.55s-11.91-7.28-26.9.17Z" transform="translate(-57.31 -347.67)"/><path class="cls-2" d="M537.25,1475.14c-28.12-29.32,10.17-65.81,10.17-65.81s28.72,12,32.3,43.07Z" transform="translate(-57.31 -347.67)"/><path class="cls-18" d="M547.25,1462.87c-9.82-11.88,0-30.21,0-30.21s12.65,4.13,16.52,19.62Z" transform="translate(-57.31 -347.67)"/><path class="cls-2" d="M595.29,1604.83a10.11,10.11,0,0,1-7.83,5.89c-27.42,4.23-34.12-3.34-34.12-3.34s-21.83,12.14-73.13-2.31a11.8,11.8,0,0,1-6.8,5.26c-7.85,2.57-38.32-.08-58.17-2.16-12-1.27-47.15,1.56-47.15,1.56-32,0-68.4-8.56-82.48-40.68-17.82-40.65.93-89.38,31.15-118.47,32.25-31.11,75.28-33.91,114.4-13.53,94.9,49.45,102.08,33.32,126.43,12.83L574,1574.5c5.38,1.88,10.1,4.45,13.5,8a41.84,41.84,0,0,1,5.4,6.86C597.16,1596.23,596.76,1601.38,595.29,1604.83Z" transform="translate(-57.31 -347.67)"/><path class="cls-22" d="M530,1475.14c-38.05,22.36-39.3,93.19,34.16,100.11l8.41-32.13Z" transform="translate(-57.31 -347.67)"/><path class="cls-2" d="M661.76,1527.8c-7.72,27.15-20.47,42.7-33.55,51.35a60.52,60.52,0,0,1-33.52,10.25,78.66,78.66,0,0,1-23.7-3.7c-29.1-9.15-52.88-34.65-52.88-68.15,0-42.3,30.73-74.72,69.4-74.72C631.79,1442.83,675.51,1479.38,661.76,1527.8Z" transform="translate(-57.31 -347.67)"/><path class="cls-22" d="M628.21,1579.15a60.52,60.52,0,0,1-33.52,10.25c-.6,0-1.18,0-1.78,0a41.84,41.84,0,0,0-5.4-6.86c-3.4-3.57-8.12-6.14-13.5-8,11.88-2.43,18.75.75,18.75.75s21.88-10.87,35.4,3.85Z" transform="translate(-57.31 -347.67)"/><path class="cls-2" d="M586.92,1591.26c-3.85,5.54-3.16,13.26,2.2,17.36a6.58,6.58,0,0,0,3.86,1.58h38.14c1.83,0,2.8-2,3.29-4.49,1.49-7.63-1.72-15.37-7.67-20.38C614.44,1575,598,1575.24,586.92,1591.26Z" transform="translate(-57.31 -347.67)"/><path class="cls-18" d="M518.1,1570.76a173.4,173.4,0,0,1,23.13.67,153.12,153.12,0,0,1,22.92,3.82,82.11,82.11,0,0,1,11.13,3.62,52.54,52.54,0,0,1,10.5,5.49,27.31,27.31,0,0,1,8.25,8.75,18.24,18.24,0,0,1,2,11.79l-1.4-.15a17.25,17.25,0,0,0-2.71-10.36A24.67,24.67,0,0,0,584,1587c-6.26-3.93-13.47-6.4-20.77-8.27a184.24,184.24,0,0,0-22.37-4.24c-7.55-1-15.17-1.76-22.79-2.29Z" transform="translate(-57.31 -347.67)"/><path class="cls-18" d="M390.8,1495.46a48.32,48.32,0,0,1,21.58,8.74,31.55,31.55,0,0,1,7.89,8.93,36.75,36.75,0,0,1,4.25,11.15,52.82,52.82,0,0,1,.91,11.82,81.28,81.28,0,0,1-1.47,11.67,117.49,117.49,0,0,1-7.07,22.24c-1.5,3.59-3.2,7.09-5.05,10.52l-.71,1.28-.38.66,0,0c.17.56-1.6-4.74-.83-2.49l.08,0,.17.06.33.13,2.64,1c1.77.68,3.56,1.3,5.35,1.9a139.38,139.38,0,0,0,22.11,5.24c7.46,1.06,15.3,1.9,22.81,3.79a60.43,60.43,0,0,1,11.09,3.77,18.35,18.35,0,0,1,5,3.31,6,6,0,0,1,1.73,2.76,4.46,4.46,0,0,1-.43,3.34l-1.23-.67c.75-1.5.06-3-1.28-4.17a16.75,16.75,0,0,0-4.67-2.74,59.05,59.05,0,0,0-10.82-3.16c-7.45-1.65-14.95-2.24-22.7-3.13a131,131,0,0,1-22.71-5.09c-1.85-.6-3.7-1.22-5.52-1.9l-2.72-1-.34-.13-.17-.07-.09,0c.75,2.23-1.07-3.06-.87-2.53l0,0,.33-.6.67-1.24c1.77-3.34,3.37-6.78,4.89-10.25a114.17,114.17,0,0,0,7-21.51,78,78,0,0,0,1.5-11.14,54.22,54.22,0,0,0-.62-11.11,30.93,30.93,0,0,0-10.69-18.76c-5.71-4.75-12.92-7.59-20.32-9.25Z" transform="translate(-57.31 -347.67)"/><path class="cls-18" d="M608,1505.75c2.67,4.92,6.29,9.32,11.12,10.83a18.74,18.74,0,0,0,7.69.65c1.34-.13,2.69-.5,4.07-.69,1.35-.4,2.71-.8,4.14-1.12l.69,1.4c-1.25.82-2.57,1.57-3.91,2.31a31.88,31.88,0,0,1-4.38,1.52,17.85,17.85,0,0,1-9.58-.22,15.7,15.7,0,0,1-7.82-5.69,18.48,18.48,0,0,1-3.52-8.59Z" transform="translate(-57.31 -347.67)"/><path class="cls-18" d="M564.48,1487c2.29,5.11,5.55,9.78,10.26,11.66a18.61,18.61,0,0,0,7.61,1.24c1.35,0,2.72-.28,4.11-.37,1.38-.29,2.77-.58,4.22-.79l.58,1.45c-1.32.72-2.69,1.36-4.08,2a33.51,33.51,0,0,1-4.48,1.18,17.92,17.92,0,0,1-9.54-1,15.65,15.65,0,0,1-7.35-6.28,18.44,18.44,0,0,1-2.85-8.83Z" transform="translate(-57.31 -347.67)"/><polygon class="cls-23" points="1431.16 554.57 1473.41 554.57 1439.67 336.17 1397.42 336.17 1431.16 554.57"/><polygon class="cls-24" points="1473.44 554.57 1515.69 554.57 1481.95 336.17 1439.71 336.17 1473.44 554.57"/><rect class="cls-23" x="1531.57" y="454.24" width="155.91" height="100.3"/><rect class="cls-8" x="1576.56" y="486.82" width="65.93" height="17.56"/><rect class="cls-24" x="1324.06" y="270.16" width="73.36" height="284.38"/><rect class="cls-23" x="1284.55" y="554.53" width="439.08" height="31.58"/><circle class="cls-25" cx="1015.61" cy="491.31" r="141.14" transform="translate(-107.26 514.38) rotate(-45)"/><polygon class="cls-10" points="1014.12 172.95 953.8 144.28 1019.7 86.23 1023 89.98 962.79 143.01 1016.26 168.44 1014.12 172.95"/><rect class="cls-24" x="258.98" y="220.75" width="281.61" height="185.35" rx="30.86"/><rect class="cls-23" x="294.61" y="267.27" width="210.35" height="17.52"/><rect class="cls-11" x="294.61" y="304.67" width="210.35" height="17.52"/><rect class="cls-11" x="294.61" y="342.06" width="210.35" height="17.52"/><polygon class="cls-26" points="330.15 593.66 290.17 562.39 370.13 562.39 330.15 593.66"/><rect class="cls-26" x="130.17" y="377.07" width="281.61" height="185.35" rx="30.86"/><g class="cls-27"><rect class="cls-8" x="189.73" y="482.84" width="27.26" height="33.69"/><rect class="cls-8" x="233.51" y="445.33" width="27.26" height="71.21"/><rect class="cls-8" x="279.23" y="461.5" width="27.26" height="55.04"/><rect class="cls-8" x="324.94" y="422.95" width="27.26" height="93.58"/></g></svg>